<?xml version="1.0" standalone="no"?>
<!DOCTYPE svg PUBLIC "-//W3C//DTD SVG 20010904//EN"
 "http://www.w3.org/TR/2001/REC-SVG-20010904/DTD/svg10.dtd">
<svg version="1.0" xmlns="http://www.w3.org/2000/svg"
 width="1500.000000pt" height="656.000000pt" viewBox="0 0 1500.000000 656.000000"
 preserveAspectRatio="xMidYMid meet">

<g transform="translate(0.000000,656.000000) scale(0.100000,-0.100000)"
fill="#000000" stroke="none">
<path d="M7725 6230 c-110 -5 -240 -11 -290 -14 -49 -3 -166 -10 -260 -15 -93
-6 -213 -15 -265 -21 -52 -6 -140 -15 -195 -20 -147 -13 -393 -41 -515 -59
-36 -5 -99 -14 -140 -20 -41 -6 -129 -19 -195 -30 -66 -11 -151 -26 -190 -32
-38 -6 -83 -15 -99 -20 -16 -5 -42 -9 -59 -9 -16 0 -46 -4 -66 -9 -33 -9 -87
-20 -201 -41 -239 -46 -480 -102 -730 -170 -63 -17 -153 -42 -200 -54 -137
-37 -605 -185 -650 -207 -52 -24 -237 -96 -405 -156 -22 -8 -53 -20 -70 -28
-16 -7 -84 -34 -150 -60 -66 -26 -138 -56 -160 -66 -22 -10 -85 -37 -140 -60
-179 -74 -249 -105 -450 -198 -44 -21 -105 -48 -135 -61 -80 -35 -885 -440
-1020 -513 -216 -118 -255 -139 -320 -177 -36 -20 -102 -58 -147 -84 -174
-100 -150 -104 257 -46 39 6 100 14 138 20 87 12 201 29 282 41 36 6 103 14
150 19 47 5 126 13 175 19 299 35 369 43 450 51 167 18 300 30 425 41 69 6
170 15 225 20 353 33 1108 44 1365 21 282 -26 430 -54 430 -81 0 -11 -51 -41
-70 -41 -16 0 -506 -237 -590 -285 -25 -15 -83 -46 -130 -70 -263 -137 -606
-347 -840 -514 -226 -162 -406 -313 -395 -331 3 -5 33 1 68 11 60 19 375 99
467 120 89 19 306 61 360 70 30 4 82 13 115 18 221 37 327 53 570 82 442 53
888 77 1415 78 167 1 300 -3 295 -7 -6 -5 -50 -25 -100 -46 -133 -55 -387
-182 -490 -244 -208 -126 -529 -362 -708 -521 -18 -16 -59 -52 -92 -81 -33
-30 -149 -141 -257 -249 -143 -141 -198 -201 -198 -218 0 -13 3 -23 7 -23 4 0
73 16 153 35 168 41 205 50 280 65 30 6 83 18 118 26 63 15 260 49 342 60 25
3 126 16 225 29 190 25 299 37 480 55 134 12 792 14 799 1 6 -8 -5 -49 -64
-236 -28 -91 -80 -283 -99 -365 -6 -25 -17 -74 -25 -110 -22 -96 -64 -346 -81
-490 -28 -236 -45 -632 -29 -674 11 -29 46 -17 128 42 150 108 364 248 491
322 17 9 81 47 143 84 62 36 115 66 118 66 2 0 22 11 44 25 21 13 151 80 287
149 340 169 403 199 578 271 50 20 104 42 120 49 45 20 219 90 310 126 263
105 1035 346 1035 323 0 -2 -15 -19 -33 -36 -196 -192 -330 -432 -353 -637
l-7 -63 39 23 c21 13 70 43 107 67 37 24 70 43 73 43 2 0 21 11 42 23 80 51
304 173 492 268 100 51 263 126 395 183 72 31 138 61 147 66 10 6 22 10 28 10
6 0 29 9 53 19 23 11 65 27 92 36 28 9 64 23 80 30 64 30 429 145 610 193 317
83 454 112 750 156 300 45 357 49 640 50 239 1 290 -2 350 -17 142 -36 195
-88 195 -188 0 -86 -51 -178 -173 -314 -55 -60 -54 -61 52 -45 36 6 98 15 136
21 262 39 573 142 753 251 34 21 65 38 67 38 7 0 103 67 150 105 77 62 238
233 288 306 76 112 162 298 191 416 23 90 26 122 26 280 0 246 -25 369 -116
563 -88 187 -250 392 -418 529 -68 56 -237 171 -251 171 -8 0 -112 72 -150
104 -16 14 -61 52 -99 83 -38 32 -102 87 -141 123 -133 121 -202 178 -269 227
-37 26 -98 70 -134 96 -81 58 -180 124 -245 163 -27 16 -63 38 -81 49 -127 78
-617 335 -640 335 -3 0 -40 16 -82 35 -41 19 -77 35 -80 35 -2 0 -23 9 -47 20
-101 47 -548 205 -732 259 -269 79 -779 194 -1050 236 -55 9 -120 20 -145 24
-41 9 -128 19 -550 67 -115 13 -273 17 -765 19 -341 2 -710 0 -820 -5z m1480
-524 c767 -67 1441 -219 2065 -463 145 -57 461 -210 605 -292 229 -132 337
-209 821 -587 156 -121 243 -176 394 -248 134 -63 227 -93 342 -110 l83 -12
-90 -46 c-114 -58 -252 -101 -413 -129 -172 -30 -512 -33 -642 -6 -212 45
-511 170 -679 283 -42 28 -132 89 -201 135 -260 177 -617 331 -968 418 -306
76 -512 102 -859 108 -269 5 -283 4 -289 -13 -7 -18 -161 -386 -189 -449 -7
-16 -30 -70 -50 -120 -20 -49 -43 -103 -50 -120 -48 -105 -124 -289 -121 -293
2 -2 23 22 46 53 23 31 76 91 119 134 307 308 700 411 1107 290 l75 -22 -78
-37 c-145 -69 -244 -173 -294 -310 -21 -56 -24 -83 -24 -200 0 -115 4 -146 23
-205 94 -281 269 -497 481 -593 l61 -28 -257 -68 c-536 -142 -1303 -370 -1668
-496 -306 -106 -576 -204 -685 -250 -25 -11 -117 -49 -205 -86 -88 -37 -231
-103 -317 -147 -148 -74 -364 -208 -416 -257 -13 -12 -25 -20 -28 -18 -8 9 26
232 50 333 42 171 122 354 209 478 79 111 96 142 102 182 9 56 -23 101 -98
139 -58 29 -59 29 -285 34 -554 11 -1117 -63 -1555 -205 -60 -19 -111 -33
-113 -30 -3 2 35 42 83 87 244 231 729 471 1413 696 186 62 626 190 770 224
52 12 99 26 103 30 25 23 -347 159 -583 213 -342 79 -651 111 -1080 110 -429
0 -777 -31 -1258 -114 -63 -10 -117 -17 -119 -15 -8 8 151 143 240 204 386
264 1012 511 1841 726 254 66 799 183 1076 231 187 32 197 36 145 46 -113 23
-649 74 -1040 98 -734 46 -1730 38 -2330 -19 -484 -47 -960 -121 -1365 -215
-25 -6 204 112 295 152 317 138 793 292 1245 402 1011 245 2134 380 3480 415
266 7 913 -4 1075 -18z m1633 -1634 c94 -63 224 -140 285 -168 20 -10 37 -20
37 -24 0 -3 -30 -21 -67 -39 -96 -47 -138 -84 -169 -146 -49 -102 -25 -207 78
-342 l49 -63 -60 0 c-87 0 -155 17 -246 60 -130 62 -250 200 -276 316 -25 111
18 264 99 353 37 41 144 111 169 111 7 0 52 -26 101 -58z m552 -370 c109 -54
107 -213 -3 -262 -53 -24 -71 -24 -124 0 -110 49 -112 208 -3 262 19 10 49 18
65 18 17 0 46 -8 65 -18z m328 -92 c73 -30 131 -59 129 -64 -3 -8 -248 -85
-274 -86 -8 0 -7 9 4 30 15 31 14 109 -2 159 -5 14 -4 22 2 20 5 -2 69 -29
141 -59z m2154 8 c206 -252 301 -590 229 -818 -74 -238 -235 -428 -462 -545
-99 -51 -116 -55 -95 -22 8 12 20 43 26 68 24 94 -24 175 -133 229 -147 71
-346 96 -699 86 -143 -4 -238 -3 -238 3 0 18 -96 72 -170 95 -218 69 -623 59
-1078 -28 -162 -31 -389 -82 -456 -101 -43 -13 -69 -13 -55 -1 29 25 303 178
434 242 280 136 482 210 760 281 122 31 159 36 290 40 83 2 206 0 275 -5 l125
-9 23 26 c132 147 238 227 413 310 130 62 259 104 414 137 100 21 280 48 346
53 9 0 32 -18 51 -41z"/>
<path d="M13310 3359 c-36 -12 -69 -24 -73 -28 -11 -10 115 -66 180 -80 74
-15 103 -3 103 44 0 82 -77 105 -210 64z"/>
</g>
</svg>
